<svg id="_052-linkedin" data-name="052-linkedin" xmlns="http://www.w3.org/2000/svg" width="20" height="20" viewBox="0 0 20 20">
  <path id="Vector" d="M12.921,13.688h.005V6.352C12.926,2.764,12.153,0,7.958,0A4.355,4.355,0,0,0,4.036,2.156H3.977V.335H0V13.688H4.142V7.076c0-1.741.33-3.424,2.486-3.424,2.124,0,2.156,1.987,2.156,3.536v6.5Z" transform="translate(7.074 6.312)" fill="#3734a9"/>
  <path id="Vector-2" data-name="Vector" d="M0,0H4.147V13.352H0Z" transform="translate(0.33 6.648)" fill="#3734a9"/>
  <path id="Vector-3" data-name="Vector" d="M2.4,0A2.413,2.413,0,1,0,4.8,2.4,2.4,2.4,0,0,0,2.4,0Z" fill="#3734a9"/>
</svg>
