<svg xmlns="http://www.w3.org/2000/svg" width="64" height="64" viewBox="0 0 64 64">
  <g id="Group_199" data-name="Group 199" transform="translate(-199 -1232)">
    <rect id="Rectangle_105" data-name="Rectangle 105" width="64" height="64" rx="20" transform="translate(199 1232)" fill="#e8f2ff"/>
    <g id="Frame" transform="translate(210 1241)">
      <g id="Group">
        <path id="Vector" d="M19.067,9.534A9.534,9.534,0,1,0,0,9.534,8.4,8.4,0,0,0,.294,11.8a8.918,8.918,0,0,0,1.344,3.024c.126.253.294.5.463.8.21.336.377.673.587.966a6.41,6.41,0,0,1,1.344,3.823v3.947a1.989,1.989,0,0,0,1.68,1.974c.42,2.143,1.68,3.486,3.823,3.486s3.444-1.344,3.823-3.486a2.021,2.021,0,0,0,1.68-1.974V20.411a6.321,6.321,0,0,1,1.344-3.823c.167-.294.377-.63.587-.966.167-.294.336-.546.463-.8A8.886,8.886,0,0,0,18.774,11.8a8.4,8.4,0,0,0,.294-2.267ZM13.4,21.42H5.754v-.966a2.192,2.192,0,0,0-.043-.546H13.4c0,.167-.043.336-.043.546l0,.966Zm-.377,3.319H6.047a.331.331,0,0,1-.336-.336V23.1h7.644v1.3c.043.167-.125.336-.335.336ZM9.533,28.183c-.463,0-1.637,0-2.1-1.764h4.243a2.012,2.012,0,0,1-2.143,1.764Zm7.6-16.716A7.833,7.833,0,0,1,16,13.986c-.167.253-.294.5-.463.8-.21.336-.377.673-.546.924a12.549,12.549,0,0,0-1.26,2.477H5.417a10.57,10.57,0,0,0-1.26-2.477c-.167-.294-.377-.587-.546-.924-.167-.294-.336-.587-.463-.8a8.01,8.01,0,0,1-1.134-2.563,7.337,7.337,0,0,1-.253-1.89,7.854,7.854,0,1,1,15.707,0,16.694,16.694,0,0,1-.333,1.933Z" transform="translate(11.466 10.374)" fill="#4f46ba"/>
        <path id="Vector-2" data-name="Vector" d="M4.326,0H.84a.84.84,0,0,0,0,1.68H4.326a.84.84,0,0,0,0-1.68Z" transform="translate(33.977 19.067)" fill="#4f46ba"/>
        <path id="Vector-3" data-name="Vector" d="M.841,4.159a.823.823,0,0,0,.587-.253L3.906,1.429a.812.812,0,0,0,0-1.176.812.812,0,0,0-1.176,0L.252,2.73a.812.812,0,0,0,0,1.176.83.83,0,0,0,.589.253Z" transform="translate(29.902 6.845)" fill="#4f46ba"/>
        <path id="Vector-4" data-name="Vector" d="M.84,5.166a.842.842,0,0,0,.84-.84V.84A.84.84,0,0,0,0,.84V4.326A.842.842,0,0,0,.84,5.166Z" transform="translate(20.16 1.764)" fill="#4f46ba"/>
        <path id="Vector-5" data-name="Vector" d="M2.731,3.906a.809.809,0,0,0,1.175,0,.812.812,0,0,0,0-1.176L1.429.252a.812.812,0,0,0-1.176,0,.812.812,0,0,0,0,1.176Z" transform="translate(7.936 6.847)" fill="#4f46ba"/>
        <path id="Vector-6" data-name="Vector" d="M4.326,0H.84a.84.84,0,0,0,0,1.68H4.326a.84.84,0,0,0,0-1.68Z" transform="translate(2.897 19.067)" fill="#4f46ba"/>
        <path id="Vector-7" data-name="Vector" d="M2.73.252.252,2.73a.812.812,0,0,0,0,1.176.83.83,0,0,0,.587.253.823.823,0,0,0,.587-.253L3.9,1.429A.812.812,0,0,0,3.9.252a.81.81,0,0,0-1.175,0Z" transform="translate(7.938 28.811)" fill="#4f46ba"/>
        <path id="Vector-8" data-name="Vector" d="M1.429.252a.812.812,0,0,0-1.176,0,.812.812,0,0,0,0,1.176L2.73,3.906a.809.809,0,0,0,1.175,0,.812.812,0,0,0,0-1.176Z" transform="translate(29.904 28.811)" fill="#4f46ba"/>
      </g>
    </g>
  </g>
</svg>
