<svg xmlns="http://www.w3.org/2000/svg" width="35.199" height="33.6" viewBox="0 0 35.199 33.6">
  <path id="Vector" d="M18.4,0A16.8,16.8,0,0,0,3.218,9.6H.8a.8.8,0,0,0-.716,1.158l3.2,6.4a.8.8,0,0,0,1.431,0l3.2-6.4A.8.8,0,0,0,7.2,9.6H5.013a15.2,15.2,0,1,1-.708,12.894.8.8,0,0,0-1.484.6A16.8,16.8,0,1,0,18.4,0ZM4,15.011,2.093,11.2H5.9ZM21.6,18.4a2.4,2.4,0,0,1-2.4,2.4V22a.8.8,0,1,1-1.6,0V20.8H16.4a.8.8,0,1,1,0-1.6h2.8a.8.8,0,0,0,0-1.6H17.6a2.4,2.4,0,0,1,0-4.8V11.6a.8.8,0,0,1,1.6,0v1.2h1.2a.8.8,0,0,1,0,1.6H17.6a.8.8,0,0,0,0,1.6h1.6A2.4,2.4,0,0,1,21.6,18.4ZM18.4,26a9.2,9.2,0,1,1,9.2-9.2A9.21,9.21,0,0,1,18.4,26Zm0-16.8A7.6,7.6,0,1,0,26,16.8,7.609,7.609,0,0,0,18.4,9.2Z"/>
</svg>
