<svg xmlns="http://www.w3.org/2000/svg" width="38.895" height="24.073" viewBox="0 0 38.895 24.073">
  <path id="Vector" d="M.88,13.908h7.7L9.725,23.28a.9.9,0,0,0,.835.792H10.6a.848.848,0,0,0,.835-.66l4.4-17.028L20.505,21.83a.867.867,0,0,0,.925.615.892.892,0,0,0,.792-.792l.925-8.185h7.92a.882.882,0,0,0,.88-.88v-.045a.257.257,0,0,0-.045-.175c0-.045,0-.045-.045-.088,0-.045-.045-.088-.045-.132a.044.044,0,0,0-.045-.045.618.618,0,0,1-.132-.175l-.045-.045c-.045-.045-.088-.045-.132-.088h-.045c-2.42-1.275-5.985-4.4-6.425-7a2.587,2.587,0,0,1,.748-2.332c1.408-1.5,3.388-.528,4.8.528a.926.926,0,0,0,1.055,0c1.408-1.055,3.345-1.98,4.752-.485a2.731,2.731,0,0,1,.792,1.935c-.045,1.408-1.1,3.125-2.992,4.885a.872.872,0,0,0,1.188,1.277c1.585-1.452,3.475-3.74,3.565-6.115a4.178,4.178,0,0,0-1.275-3.168c-1.672-1.76-4.048-1.76-6.555-.045-2.552-1.715-4.928-1.672-6.6.045a4.291,4.291,0,0,0-1.188,3.828c.4,2.375,2.6,4.885,4.84,6.6H22.44a.9.9,0,0,0-.88.792L21.032,17.3,16.677,2.911A.862.862,0,0,0,15.8,2.3a.848.848,0,0,0-.835.66l-4,15.575-.7-5.589a.9.9,0,0,0-.88-.792H.88a.88.88,0,0,0,0,1.76Z"/>
</svg>
