<svg xmlns="http://www.w3.org/2000/svg" width="20.03" height="10.847" viewBox="0 0 20.03 10.847">
  <path id="Vector" d="M8.445,9.522c.053-.045.108-.092.158-.141a5,5,0,0,1-8.388-2.4V6.98C-1.213,1.738,4.806-2.244,8.6,1.423L13.59,6.742H13.6a1.759,1.759,0,0,0,2.587.013,2.04,2.04,0,0,0,.039-2.761,1.826,1.826,0,0,0-3.116,1.589L11.854,4.3,10.39,2.9a5.413,5.413,0,0,1,1.193-1.577c-.053.046-.108.093-.158.141a5.005,5.005,0,0,1,8.388,2.4v0c1.431,5.241-4.595,9.223-8.387,5.556L6.443,4.071l0-.013a.013.013,0,0,1-.013-.013,1.735,1.735,0,0,0-2.587-.026A2.023,2.023,0,0,0,3.8,6.77,1.838,1.838,0,0,0,6.915,5.142l2.728,2.8a5.656,5.656,0,0,1-1.2,1.579Z" transform="translate(0)" fill="#3734a9"/>
</svg>
