<svg xmlns="http://www.w3.org/2000/svg" width="137.146" height="24.962" viewBox="0 0 137.146 24.962">
  <g id="Group" transform="translate(-560.112 -1.682)">
    <g id="Group-2" data-name="Group">
      <path id="Vector" d="M2.843,13.7A2.854,2.854,0,0,1,.356,12.261,2.76,2.76,0,0,1,.434,9.42L5.557,1.375a2.869,2.869,0,0,1,4.976.135,2.757,2.757,0,0,1-.154,2.837L5.259,12.391A2.856,2.856,0,0,1,2.843,13.7Z" transform="translate(560.112 7.708)" fill="#f62b54"/>
      <path id="Vector-2" data-name="Vector" d="M2.838,13.7a2.846,2.846,0,0,1-2.483-1.44A2.751,2.751,0,0,1,.433,9.43L5.546,1.4a2.866,2.866,0,0,1,4.995.114,2.751,2.751,0,0,1-.184,2.85L5.244,12.394A2.851,2.851,0,0,1,2.838,13.7Z" transform="translate(568.904 7.708)" fill="#fc0"/>
      <path id="Vector-3" data-name="Vector" d="M5.275,2.582A2.61,2.61,0,0,1,2.637,5.164,2.61,2.61,0,0,1,0,2.582,2.61,2.61,0,0,1,2.637,0,2.61,2.61,0,0,1,5.275,2.582Z" transform="translate(577.695 16.316)" fill="#00ca72"/>
    </g>
    <path id="Vector-4" data-name="Vector" d="M22.312,1.078c.8,0,1.273.567,1.273,1.494v3.18h1.082V2.5c0-1.578-.743-2.493-2.141-2.493a2.046,2.046,0,0,0-1.933,1.156,1.772,1.772,0,0,0-1.451-1.1,2.5,2.5,0,0,0-.608-.036A1.952,1.952,0,0,0,17,.971V.128H15.917V5.753H17V2.717a1.48,1.48,0,0,1,1.547-1.639c.725,0,1.2.555,1.2,1.483V5.753h1.077V2.717A1.482,1.482,0,0,1,22.312,1.078ZM11.942,4.813a1.78,1.78,0,0,0,1.319-.545,1.836,1.836,0,0,0,.513-1.346,1.832,1.832,0,1,0-3.664,0,1.83,1.83,0,0,0,.51,1.343,1.781,1.781,0,0,0,1.313.548Zm0,1.055a2.847,2.847,0,0,1-2.9-2.952A2.816,2.816,0,0,1,11.942,0a2.825,2.825,0,0,1,2.914,2.915,2.866,2.866,0,0,1-2.922,2.957ZM3.465,2.916l-.011.007A2.856,2.856,0,0,1,6.4,0,2.86,2.86,0,0,1,8.545.9l-.82.7A1.849,1.849,0,0,0,6.4,1.073,1.8,1.8,0,0,0,4.537,2.916,1.892,1.892,0,0,0,5.689,4.663a1.85,1.85,0,0,0,2.035-.41l.832.7A2.877,2.877,0,0,1,6.4,5.868,2.876,2.876,0,0,1,3.465,2.916ZM0,4.673a.749.749,0,0,1,.74-.758.734.734,0,1,1,0,1.468A.749.749,0,0,1,0,4.673Z" transform="translate(672.591 15.386)" fill="#333"/>
    <path id="Vector-5" data-name="Vector" d="M87.32,6.681H83.467l-2.7,6.964L78.078,6.681H74.224l4.685,11L76,24.962h3.826ZM63.882,12.8a2.994,2.994,0,0,0,3.046,2.915,2.917,2.917,0,1,0,0-5.834A3,3,0,0,0,63.882,12.8Zm5.988,6.145V17.555a4.64,4.64,0,0,1-3.54,1.63,6.23,6.23,0,0,1-6.2-6.384,6.229,6.229,0,0,1,6.2-6.383,4.447,4.447,0,0,1,3.54,1.628V6.685h3.592V18.949H69.87Zm-10.759,0H55.519V17.423a4,4,0,0,1-3.566,1.786,6,6,0,0,1-5.885-6.359c0-3.936,2.76-6.435,5.885-6.435a3.976,3.976,0,0,1,3.566,1.759V0h3.592Zm-3.671-6.173a2.814,2.814,0,1,0-5.624,0,2.8,2.8,0,0,0,2.812,2.967A2.842,2.842,0,0,0,55.441,12.774Zm-18.255-.317c0-1.865.964-2.5,2.239-2.5,1.223,0,2.109.814,2.109,2.442v6.541h3.618V11.617c0-3.493-1.719-5.2-4.453-5.2a4.052,4.052,0,0,0-3.514,2.049V6.681H33.568V18.945h3.617Zm-10.965,6.7a6.164,6.164,0,0,1-6.3-6.383,6.142,6.142,0,0,1,6.3-6.36,6.162,6.162,0,0,1,6.327,6.36,6.183,6.183,0,0,1-6.327,6.384Zm0-3.571a2.7,2.7,0,0,0,2.76-2.811,2.709,2.709,0,0,0-2.76-2.785,2.679,2.679,0,0,0-1.956.8,2.727,2.727,0,0,0-.778,1.981A2.7,2.7,0,0,0,26.221,15.585ZM13.432,9.963c1.067,0,2,.841,2,2.442v6.542h3.592V11.982c0-3.7-1.8-5.568-4.686-5.568A4.153,4.153,0,0,0,10.7,8.593,3.923,3.923,0,0,0,6.8,6.439,3.476,3.476,0,0,0,3.621,8.462V6.682H0V18.946H3.617V12.457c0-1.865,1.016-2.5,2.109-2.5,1.042,0,1.977.814,2,2.364v6.62h3.618V12.457c0-1.783.938-2.493,2.083-2.493Z" transform="translate(588.232 1.682)" fill="#333"/>
  </g>
</svg>
