<svg xmlns="http://www.w3.org/2000/svg" width="137.149" height="28.326" viewBox="0 0 137.149 28.326">
  <g id="Group" transform="translate(-186.704)">
    <path id="Vector" d="M95.47.931a.926.926,0,1,1-1.012,1.55c-1.17-.743-3.828-1.091-4.16.553-.427,2.594,6.453,1.107,6.342,5.314-.111,4.017-5.931,4.112-8.114,2.309a1.171,1.171,0,0,1-.221-1.55A.933.933,0,0,1,89.713,9c1.3.886,4.634,1.55,4.871-.7C94.379,5.96,87.8,7.368,88.29,2.876,88.654-.192,93.288-.746,95.47.931Zm-10.376.617V7.273c0,5.915-9.537,5.915-9.537,0V1.548a1.037,1.037,0,1,1,2.072,0V7.273c0,3.116,5.393,3.306,5.393,0V1.548A1.038,1.038,0,1,1,85.094,1.548ZM19.787.108a5.7,5.7,0,0,1,5.662,5.8,5.516,5.516,0,0,1-5.662,5.694,5.521,5.521,0,0,1-5.963-5.694A5.675,5.675,0,0,1,19.787.108ZM33.721.5a3.514,3.514,0,0,1,1.487,6.722l2.1,2.562a1.068,1.068,0,1,1-1.771,1.186L33.152,7.558H30.669V10.42a1.052,1.052,0,0,1-2.1.032V1.468A.945.945,0,0,1,29.514.5ZM.949.361a1.3,1.3,0,0,1,1,.569l3.48,4.7L9.031.757a1.026,1.026,0,0,1,1.8.7v8.9a.983.983,0,0,1-.949,1.091.994.994,0,0,1-1.012-1.091V4.505L6.247,7.827a1.039,1.039,0,0,1-1.8,0L2.088,4.505v5.852A1.092,1.092,0,0,1,.949,11.449.983.983,0,0,1,0,10.357v-8.9A1.052,1.052,0,0,1,.949.361Zm44.24,0A3.771,3.771,0,0,1,49.1,4.379a3.746,3.746,0,0,1-3.907,3.891H42.547v2.088a.994.994,0,0,1-1.012,1.091,1.068,1.068,0,0,1-1.076-1.091v-8.9A1.088,1.088,0,0,1,41.535.361ZM60.294.5a.956.956,0,0,1,.981.981v8.984a.966.966,0,0,1-.981.981,1.039,1.039,0,0,1-1.075-.981V7H54.062v3.464a.953.953,0,0,1-.965.981,1,1,0,0,1-1.123-.981V1.484A.991.991,0,0,1,53.1.5a.943.943,0,0,1,.965.981V4.932h5.156V1.484A1.028,1.028,0,0,1,60.294.5ZM71.3.5a1.029,1.029,0,1,1,0,2.056H66.747V4.932h3.986a1.036,1.036,0,1,1,0,2.072H66.747V9.377h4.824a1.039,1.039,0,1,1,0,2.072H65.624a.966.966,0,0,1-.981-.981V1.484A.956.956,0,0,1,65.624.5ZM19.613,2.164a3.62,3.62,0,0,0-3.7,3.749,3.733,3.733,0,1,0,7.465,0A3.643,3.643,0,0,0,19.613,2.164Zm25.576.19H42.547V6.292h2.641a1.97,1.97,0,0,0,0-3.938Zm-11.467.063H30.669V5.739h3.053C35.777,5.739,35.9,2.417,33.721,2.417Z" transform="translate(227.21 8.917)" fill="#3db5e6"/>
    <g id="Group-2" data-name="Group">
      <path id="Vector-2" data-name="Vector" d="M27.576,6.5A14.121,14.121,0,0,1,13.747,17.1,14.171,14.171,0,0,1,0,6.214c1.778,0,3.441.008,4.212.008.364,0,.435.006.456,0a1.9,1.9,0,0,0,1.793-1.4L8.307,0l4.1,9.87a1.237,1.237,0,0,0,1.351.731h.035a1.254,1.254,0,0,0,1.3-.77L19.722.074l1.58,4.4.1.213c.334.733.574,1.456,1.4,1.551.17.019,2.149-.015,4.816-.015C27.615,6.22,27.615,6.237,27.576,6.5Z" transform="translate(187.088 11.224)" fill="#3db5e6"/>
      <path id="Vector-3" data-name="Vector" d="M28.413,14.075c0,.074,0,.259,0,.259h-4.26L21.668,7.4c-.221-.516-.554-1.29-1.522-1.29-.593,0-1.128.49-1.432,1.3l-4.5,10.429L9.876,7.467c-.424-.921-.718-1.354-1.566-1.354-.576,0-1,.212-1.459,1.3L4.278,14.437,0,14.433q0-.16,0-.32a14.207,14.207,0,0,1,28.413-.037Z" transform="translate(186.704)" fill="#d8292f"/>
    </g>
  </g>
</svg>
