<svg xmlns="http://www.w3.org/2000/svg" width="137.148" height="17.829" viewBox="0 0 137.148 17.829">
  <g id="Group" transform="translate(0 -5.249)">
    <path id="Vector" d="M59.208,11.6H68.27L63.478,3.89,54.684,17.829h-4l10.7-16.744A2.528,2.528,0,0,1,63.478,0a2.48,2.48,0,0,1,2.058,1.057l10.74,16.772h-4l-1.889-3.115H61.209Zm41.578,3.115V.169h-3.4V16.138a1.665,1.665,0,0,0,.493,1.184,1.735,1.735,0,0,0,1.24.507h15.489l2-3.115ZM44.592,12.107a5.969,5.969,0,1,0,0-11.938H29.733v17.66h3.4V3.284H44.367a2.861,2.861,0,0,1,0,5.722l-9.575-.014,10.139,8.837h4.933l-6.822-5.722ZM8.831,17.829a8.83,8.83,0,1,1,0-17.66H19.1a8.83,8.83,0,1,1,0,17.66Zm10.036-3.115a5.715,5.715,0,1,0,0-11.43H9.058a5.715,5.715,0,1,0,0,11.43Zm64.5,3.115a8.83,8.83,0,1,1,0-17.66H95.556L93.569,3.284H83.591a5.715,5.715,0,1,0,0,11.43H95.838l-2,3.115ZM124.9,14.714a5.708,5.708,0,0,1-5.5-4.158h14.517l2-3.115H119.4a5.724,5.724,0,0,1,5.5-4.158h9.965L136.88.169H124.675a8.83,8.83,0,1,0,0,17.66h10.472l2-3.115Z" transform="translate(0 5.249)" fill="#ea1b22"/>
  </g>
</svg>
