<svg xmlns="http://www.w3.org/2000/svg" width="90.764" height="17" viewBox="0 0 90.764 17">
  <g id="Group_192" data-name="Group 192" transform="translate(-866 -4148)">
    <path id="Star_6" data-name="Star 6" d="M9.09,2.346a1,1,0,0,1,1.859,0L12.28,5.706a1,1,0,0,0,.907.631l3.744.085a1,1,0,0,1,.542,1.825l-2.777,1.9a1,1,0,0,0-.384,1.141L15.345,14.4a1,1,0,0,1-1.472,1.168L10.543,13.52a1,1,0,0,0-1.046,0L6.166,15.564A1,1,0,0,1,4.694,14.4l1.035-3.109a1,1,0,0,0-.384-1.141l-2.777-1.9a1,1,0,0,1,.542-1.825l3.744-.085a1,1,0,0,0,.907-.631Z" transform="translate(866 4148)" fill="#f9896b"/>
    <path id="Star_7" data-name="Star 7" d="M9.09,2.346a1,1,0,0,1,1.859,0L12.28,5.706a1,1,0,0,0,.907.631l3.744.085a1,1,0,0,1,.542,1.825l-2.777,1.9a1,1,0,0,0-.384,1.141L15.345,14.4a1,1,0,0,1-1.472,1.168L10.543,13.52a1,1,0,0,0-1.046,0L6.166,15.564A1,1,0,0,1,4.694,14.4l1.035-3.109a1,1,0,0,0-.384-1.141l-2.777-1.9a1,1,0,0,1,.542-1.825l3.744-.085a1,1,0,0,0,.907-.631Z" transform="translate(883.681 4148)" fill="#f9896b"/>
    <path id="Star_8" data-name="Star 8" d="M9.09,2.346a1,1,0,0,1,1.859,0L12.28,5.706a1,1,0,0,0,.907.631l3.744.085a1,1,0,0,1,.542,1.825l-2.777,1.9a1,1,0,0,0-.384,1.141L15.345,14.4a1,1,0,0,1-1.472,1.168L10.543,13.52a1,1,0,0,0-1.046,0L6.166,15.564A1,1,0,0,1,4.694,14.4l1.035-3.109a1,1,0,0,0-.384-1.141l-2.777-1.9a1,1,0,0,1,.542-1.825l3.744-.085a1,1,0,0,0,.907-.631Z" transform="translate(901.363 4148)" fill="#f9896b"/>
    <path id="Star_9" data-name="Star 9" d="M9.09,2.346a1,1,0,0,1,1.859,0L12.28,5.706a1,1,0,0,0,.907.631l3.744.085a1,1,0,0,1,.542,1.825l-2.777,1.9a1,1,0,0,0-.384,1.141L15.345,14.4a1,1,0,0,1-1.472,1.168L10.543,13.52a1,1,0,0,0-1.046,0L6.166,15.564A1,1,0,0,1,4.694,14.4l1.035-3.109a1,1,0,0,0-.384-1.141l-2.777-1.9a1,1,0,0,1,.542-1.825l3.744-.085a1,1,0,0,0,.907-.631Z" transform="translate(919.044 4148)" fill="#f9896b"/>
    <path id="Star_10" data-name="Star 10" d="M9.09,2.346a1,1,0,0,1,1.859,0L12.28,5.706a1,1,0,0,0,.907.631l3.744.085a1,1,0,0,1,.542,1.825l-2.777,1.9a1,1,0,0,0-.384,1.141L15.345,14.4a1,1,0,0,1-1.472,1.168L10.543,13.52a1,1,0,0,0-1.046,0L6.166,15.564A1,1,0,0,1,4.694,14.4l1.035-3.109a1,1,0,0,0-.384-1.141l-2.777-1.9a1,1,0,0,1,.542-1.825l3.744-.085a1,1,0,0,0,.907-.631Z" transform="translate(936.725 4148)" fill="#f9896b"/>
  </g>
</svg>
