<svg xmlns="http://www.w3.org/2000/svg" width="64" height="64" viewBox="0 0 64 64">
  <g id="Group_199" data-name="Group 199" transform="translate(-962 -1232)">
    <rect id="Rectangle_105" data-name="Rectangle 105" width="64" height="64" rx="20" transform="translate(962 1232)" fill="#e8f2ff"/>
    <g id="Frame" transform="translate(974 1244)">
      <g id="Group">
        <path id="Vector" d="M30.063,18.328H28.011V1.928A1.939,1.939,0,0,0,26.075,0H4.787A1.939,1.939,0,0,0,2.852,1.941v16.4H.8a.8.8,0,0,0-.8.8v9.319A1.94,1.94,0,0,0,1.936,30.4H28.927a1.939,1.939,0,0,0,1.936-1.941V19.128a.8.8,0,0,0-.8-.8Zm-25.6-16.4A.342.342,0,0,1,4.8,1.587H26.075a.341.341,0,0,1,.336.341v16.4h-2.4a.8.8,0,0,0-.8.672l-.436,2.692H8.1L7.66,19a.8.8,0,0,0-.8-.672H4.46Zm24.8,26.52a.338.338,0,0,1-.336.339H1.936a.338.338,0,0,1-.336-.339v-8.52H6.187l.444,2.692a.8.8,0,0,0,.8.672H23.472a.8.8,0,0,0,.8-.672l.436-2.692h4.555Z" transform="translate(4.569 4.8)" fill="#4f46ba"/>
        <path id="Vector-2" data-name="Vector" d="M4.912,0H.8a.8.8,0,1,0,0,1.6H4.912a.8.8,0,1,0,0-1.6Z" transform="translate(17.144 29.859)" fill="#4f46ba"/>
        <path id="Vector-3" data-name="Vector" d="M1.389,5.414,3.433,2.981v9.772a.8.8,0,1,0,1.6,0V2.981L7.077,5.412v0A.8.8,0,1,0,8.3,4.4L4.846.27a.829.829,0,0,0-1.225,0L.164,4.386A.8.8,0,0,0,1.389,5.414Z" transform="translate(15.767 9.678)" fill="#4f46ba"/>
      </g>
    </g>
  </g>
</svg>
