<svg xmlns="http://www.w3.org/2000/svg" width="64" height="64" viewBox="0 0 64 64">
  <g id="Group_199" data-name="Group 199" transform="translate(-564 -1232)">
    <rect id="Rectangle_105" data-name="Rectangle 105" width="64" height="64" rx="20" transform="translate(564 1232)" fill="#e8f2ff"/>
    <g id="Frame" transform="translate(576 1244)">
      <g id="Group">
        <path id="Vector" d="M14.908,5.6,9.486.173a.589.589,0,0,0-.834,0L0,8.823l.836.834L9.069,1.425l4.586,4.588L12.22,7.447l-2.6-2.6a.59.59,0,1,0-.834.834l2.6,2.6L9.742,9.925,8.1,8.284a.59.59,0,0,0-.834.834l1.641,1.641L7.264,12.4l-2.6-2.6a.59.59,0,0,0-.834.834l2.6,2.6-1,1,.834.834,8.652-8.65a.59.59,0,0,0,0-.83Z" transform="translate(20.411 4.508)" fill="#4f46ba"/>
        <path id="Vector-2" data-name="Vector" d="M13.241,6.427l-2.6-2.6a.59.59,0,0,0-.834.834l2.6,2.6L10.763,8.906,9.122,7.266a.591.591,0,0,0-.836.834L9.927,9.741,8.283,11.383l-2.6-2.6a.591.591,0,0,0-.836.834l2.6,2.6L6.013,13.655,1.427,9.066,9.658.834,8.823,0,.173,8.648a.588.588,0,0,0,0,.834L5.6,14.906a.589.589,0,0,0,.834,0l8.65-8.65-.836-.834Z" transform="translate(4.511 20.408)" fill="#4f46ba"/>
        <path id="Vector-3" data-name="Vector" d="M27.035,21.6,7.476,2.044,6.17.735A2.451,2.451,0,0,0,2.806.61L.632,2.785A2.387,2.387,0,0,0,.759,6.145L21.626,27.014c.272.269.725.716,5.7,1.844a1.49,1.49,0,0,0,.309.034,1.27,1.27,0,0,0,.909-.372,1.307,1.307,0,0,0,.331-1.209c-1.128-4.989-1.578-5.439-1.845-5.708ZM1.594,5.309a1.208,1.208,0,0,1-.128-1.692L3.638,1.445a1.019,1.019,0,0,1,.731-.291,1.382,1.382,0,0,1,.962.416l.891.891L2.483,6.2ZM21.476,23.663a.587.587,0,0,0-.584.141.594.594,0,0,0-.156.581l.027.1L3.32,7.035,7.06,3.3,24.39,20.628a.586.586,0,0,0-.72.723l.308,1.109-1.034-.316a.592.592,0,0,0-.741.725l.308,1.106Zm.984,2.516-.3-1.072,1.028.316a.6.6,0,0,0,.594-.152.588.588,0,0,0,.15-.577l-.306-1.1,1.031.314a.591.591,0,0,0,.741-.722l-.311-1.12,1.034.3.078.077a3.177,3.177,0,0,1,.466,1.047l-3.153,3.156a3.33,3.33,0,0,1-1.055-.467Zm5.252,1.512a.106.106,0,0,1-.069.022L27.6,27.7c-1.181-.266-2.088-.492-2.8-.683l2.247-2.247c.191.706.416,1.612.684,2.792a.161.161,0,0,1-.02.123Z" transform="translate(5.64 5.663)" fill="#4f46ba"/>
      </g>
    </g>
  </g>
</svg>
