<svg xmlns="http://www.w3.org/2000/svg" width="137.148" height="21.006" viewBox="0 0 137.148 21.006">
  <g id="Group" transform="translate(-373.408 -3.66)">
    <path id="Vector" d="M130.213,9.226v2.859h2.01v2.837a3.859,3.859,0,0,1-.034.649l-.017.1q0,.032-.012.067l-.016.07-.01.036-.023.074a1.88,1.88,0,0,1-1.947,1.184,1.849,1.849,0,0,1-1.968-1.294l-.017-.07-.013-.067a4.865,4.865,0,0,1-.051-.746V5.962a4.392,4.392,0,0,1,.068-.836l.034-.151.008-.032.019-.067.011-.035.025-.071a1.817,1.817,0,0,1,1.873-1.154,1.892,1.892,0,0,1,1.685.765l.047.073q.022.036.042.073l.037.072.033.071.028.069.024.066.021.064.017.06.014.056.011.052c.005.026.01.053.014.081l.012.088.005.045.012.138.008.132.007.18,0,.092V6.88h4.938V6.2l0-.242V5.772l0-.219,0-.118-.009-.183-.013-.188-.011-.126c-.334-3.31-2.822-4.584-5.849-4.805l-.2-.013-.2-.01Q130.662.1,130.507.1L130.3.1h-.312l-.1,0-.206.006-.2.009-.2.012-.2.015-.2.018-.2.021-.1.012-.195.026a8.937,8.937,0,0,0-1.3.282L126.9.556a4.907,4.907,0,0,0-3.589,4.382l-.029.269-.02.208-.019.218-.016.217c-.009.142-.015.275-.015.386v8.452l0,.158,0,.11.007.118.009.128.011.141.022.242.018.186c.277,3.076,2.609,4.444,5.461,4.767l.2.021c.334.032.675.05,1.021.055l.208,0,.209,0c.347-.005.69-.023,1.025-.055l.2-.021c2.862-.323,5.178-1.691,5.46-4.767l.023-.271.017-.23.015-.257.009-.221.008-.314V9.226ZM96.166.625H91.207v14.5a3.45,3.45,0,0,1-.044.745l-.015.063L91.131,16q-.01.035-.022.071l-.026.074a1.986,1.986,0,0,1-3.565.076l-.03-.076-.013-.037-.023-.072-.019-.069-.008-.033-.014-.063a3.169,3.169,0,0,1-.05-.745V.625H82.4V14.792l0,.2.007.291.014.353.009.178.006.094.006.069A4.816,4.816,0,0,0,86.37,20.5l.184.046a9.985,9.985,0,0,0,1.26.212l.2.02.205.017.208.013q.156.009.315.014l.213.006.214,0H89.5l.107,0,.213-.006q.159-.005.316-.014l.208-.013.206-.017.2-.02c2.9-.308,5.076-1.628,5.375-4.778l0-.031.008-.083.012-.165.011-.2.006-.144.006-.221,0-.143v-.135l0-.121c0-.019,0-.037,0-.054Zm-45.561,0L48.132,15.951,45.66.625h-8l-.424,19.606h4.9l.133-18.15,3.372,18.15h4.972l3.375-18.15.133,18.15h4.913L58.595.625Zm-29.615,0L17.359,20.231h5.3l2.737-18.15,2.671,18.15h5.259L29.706.625ZM113.5,16.41,108.878.625H101.6v19.4h4.813l-.279-16.291,4.959,16.291h6.978V.625h-4.845ZM68.975,5.727a2.63,2.63,0,0,1-.017-1.014c.013-.057.028-.115.046-.172l.029-.086a1.606,1.606,0,0,1,1.7-1.054,1.655,1.655,0,0,1,1.8,1.765v1.2h4.834V5c0-3.084-2.018-4.27-4.175-4.686L73.013.281,72.835.252,72.657.226,72.479.2,72.3.183,72.124.166,71.947.151,71.772.139,71.6.129,71.425.122,71.254.116l-.169,0-.249,0h-.11l-.219,0-.109,0-.216.008-.214.011-.212.014c-2.949.226-5.25,1.437-5.71,4.277a6.546,6.546,0,0,0,.047,2.613c.341,1.61,1.683,2.756,3.222,3.717l.238.146.12.072.242.142.243.14.244.138.366.2.963.528.234.13.23.129.225.129.22.129a4.952,4.952,0,0,1,2.193,2.015,2.628,2.628,0,0,1,.05,1.379l-.014.058a2.116,2.116,0,0,1-.077.26l-.034.085a1.7,1.7,0,0,1-1.779.964,1.736,1.736,0,0,1-1.954-1.759l0-1.882h-5.2v1.5c0,3.511,2.227,5.036,5.017,5.488l.208.032q.209.03.421.052l.213.02q.374.032.756.043l.218,0h.219l.218,0,.216,0,.108,0,.214-.01.212-.013.21-.016q.209-.018.413-.042l.2-.026.2-.03.2-.033.2-.037c2.361-.473,4.118-1.756,4.471-4.223.049-.368.078-.708.095-1.018l.009-.2q0-.05,0-.1l0-.19v-.181l0-.172-.006-.163-.008-.154q0-.037,0-.074l-.011-.14L77.8,13.94l-.013-.122-.022-.165-.022-.144-.029-.159-.014-.065c-.34-1.707-1.835-2.913-3.5-3.906l-.238-.14-.24-.138-.241-.135-.362-.2-.48-.257-.818-.435-.337-.182-.11-.06-.215-.12-.209-.12C69.921,6.995,69.142,6.408,68.975,5.727ZM5.211,5.679a2.488,2.488,0,0,1-.029-.987L5.2,4.607l.021-.084a1.614,1.614,0,0,1,1.764-1.2A1.675,1.675,0,0,1,8.808,5.109V6.322H13.7V4.945C13.7,2,11.868.766,9.822.283L9.644.242Q9.42.194,9.194.158L9.014.13,8.834.1,8.654.083,8.474.064,8.295.048,8.117.034,7.94.023,7.764.015,7.59.008,7.418,0,7.164,0H7.081L6.862,0l-.217,0q-.216.006-.429.019L6,.039,5.9.048,5.691.067,5.486.09l-.2.026Q5.03.151,4.785.2L4.591.236,4.4.278,4.211.324l-.185.05L3.843.428A4.755,4.755,0,0,0,.232,4.358,6.773,6.773,0,0,0,.271,7c.363,1.712,1.841,2.9,3.5,3.906l.243.145.122.072.246.142.37.208.493.272.727.4.353.2.343.2.222.131.109.065.213.131A4.471,4.471,0,0,1,9.1,14.7a2.5,2.5,0,0,1,.053,1.387l-.015.06a2.232,2.232,0,0,1-.079.257l-.034.084a1.728,1.728,0,0,1-1.8.984,1.747,1.747,0,0,1-1.957-1.785L5.261,13.8H0v1.5C0,19.512,3.173,20.9,6.687,21l.22,0,.221,0,.218,0Q7.509,21,7.67,21l.214-.009q.16-.008.317-.02l.209-.018.207-.021.2-.024.2-.028.2-.031.2-.035c2.445-.458,4.268-1.755,4.635-4.292.051-.362.082-.7.1-1.005l.01-.2.006-.192q0-.094,0-.184V14.76l0-.167-.006-.158-.008-.15-.01-.141-.011-.132-.019-.182-.021-.161-.028-.184-.032-.178c-.339-1.687-1.789-2.887-3.421-3.875l-.24-.143-.121-.07-.243-.139-.244-.136-.244-.134-.244-.132L8.2,8.109l-.344-.184L7.636,7.8l-.218-.121-.212-.121L7.1,7.5l-.2-.12C6.014,6.84,5.362,6.3,5.211,5.679Z" transform="translate(373.408 3.66)" fill="#1428a0"/>
  </g>
</svg>
