<svg xmlns="http://www.w3.org/2000/svg" width="137.148" height="28.075" viewBox="0 0 137.148 28.075">
  <g id="Group" transform="translate(-746.814 -0.126)">
    <path id="Vector" d="M24.747,15.038h.018l1.9.2a.522.522,0,0,1,.342.181l.014.017L27,15.444a.522.522,0,0,1,.108.4A14.121,14.121,0,0,1,22.7,24.432a13.653,13.653,0,0,1-9.285,3.643,13.508,13.508,0,0,1-4.89-.908l-.085-.033a.5.5,0,0,1-.285-.268l-.008-.02a.518.518,0,0,1-.009-.388l.748-1.826a.513.513,0,0,1,.648-.3l.017.006A10.73,10.73,0,0,0,20.712,22.2,11.067,11.067,0,0,0,24.2,15.489a.522.522,0,0,1,.531-.452ZM69.517,7.29A4.637,4.637,0,0,1,73.2,8.73l.027.032v-.8a.45.45,0,0,1,.405-.426h2.175a.45.45,0,0,1,.418.41V19.934a7.29,7.29,0,0,1-1.468,4.7,6.421,6.421,0,0,1-5.246,2.13,5.949,5.949,0,0,1-6.187-4.953.45.45,0,0,1,.306-.472l.018-.005,2.107-.5.033-.006a.423.423,0,0,1,.48.357A3.188,3.188,0,0,0,69.517,24c2.492,0,3.664-1.267,3.687-3.913v-1.13a4.732,4.732,0,0,1-3.688,1.58c-3.584,0-6.182-2.783-6.182-6.61a6.965,6.965,0,0,1,1.7-4.7A5.939,5.939,0,0,1,69.517,7.29ZM4.607,21.852H4.66a1.581,1.581,0,0,1,1.562,1.563v.027c0,.009,0,.018,0,.027a1.589,1.589,0,1,1-1.616-1.616ZM106.852,7.123h.111c3.853.053,6.24,2.735,6.24,7.028a6.45,6.45,0,0,1-.036.68.418.418,0,0,1-.4.378h-9.176a3.521,3.521,0,0,0,3.571,3.418,3.211,3.211,0,0,0,3.278-2.287.423.423,0,0,1,.51-.257l.017.005,1.828.644a.39.39,0,0,1,.23.2l.008.018a.415.415,0,0,1,.023.32,6.03,6.03,0,0,1-5.894,4.1,6.505,6.505,0,0,1-4.647-1.887,7.265,7.265,0,0,1-1.995-5.273c0-4.391,3.156-7.03,6.237-7.082Zm-51.824,0h0c3.922,0,6.358,2.693,6.358,7.029a6.6,6.6,0,0,1-.036.68.414.414,0,0,1-.4.378H51.781a3.521,3.521,0,0,0,3.584,3.418,3.206,3.206,0,0,0,3.278-2.287.419.419,0,0,1,.51-.257l.017.005L61,16.732a.392.392,0,0,1,.239.216.414.414,0,0,1,0,.32,6.029,6.029,0,0,1-5.89,4.1,6.507,6.507,0,0,1-4.656-1.887A7.285,7.285,0,0,1,48.7,14.206C48.7,9.771,51.916,7.123,55.027,7.123Zm-13.868,0A6.617,6.617,0,0,1,45.4,8.389a4.606,4.606,0,0,1,1.517,2.2v0a.288.288,0,0,1-.2.344l-.015,0-2.184.72a.41.41,0,0,1-.3,0,.32.32,0,0,1-.171-.2l-.012-.043c-.2-.711-.849-1.853-2.875-1.853-1.441,0-2.305.829-2.305,1.63v.032c.011.521.294,1.175,1.537,1.424l.039.008,2.4.45c2.657.535,4.188,1.979,4.218,3.991v.061l-.009-.036v.061c-.039,2.017-1.99,4.14-5.583,4.14-4.21,0-5.862-2.382-6.169-3.787a.3.3,0,0,1,.21-.329l.015,0,2.251-.7a.378.378,0,0,1,.122,0,.373.373,0,0,1,.165.035l.019.01a.311.311,0,0,1,.167.2c.284,1.351,1.5,2.157,3.26,2.157,1.634,0,2.377-.856,2.377-1.63s-.647-1.334-1.764-1.568l-.037-.008-2.526-.491c-2.355-.446-3.823-1.909-3.823-3.814C35.729,9.082,38.219,7.119,41.159,7.119ZM131.97,3.368h1.968a.451.451,0,0,1,.423.433V7.515h2.368a.451.451,0,0,1,.419.433v2a.424.424,0,0,1-.4.41h-2.385v6.569c0,1.09.432,1.54,1.544,1.54a5.776,5.776,0,0,0,.673-.051l.084-.012A.418.418,0,0,1,137,18.5a.453.453,0,0,1,.144.3v1.872a.424.424,0,0,1-.3.41,5.854,5.854,0,0,1-1.592.217h-.073a3.624,3.624,0,0,1-3.845-3.916v-7h-2.049a.45.45,0,0,1-.422-.41V7.983a.45.45,0,0,1,.406-.449h.627a1.558,1.558,0,0,0,1.651-1.714v-2a.45.45,0,0,1,.406-.449ZM93.726,7.121l.052,0h0c2.318,0,4.658,1.615,4.7,5.143v8.447a.45.45,0,0,1-.405.426H95.9a.451.451,0,0,1-.422-.41V12.582c-.013-1.028-.363-2.68-2.48-2.68a2.754,2.754,0,0,0-2.7,2.99v7.821a.45.45,0,0,1-.405.426h-2.2a.45.45,0,0,1-.422-.41V12.582c-.013-1.028-.363-2.68-2.481-2.68a2.758,2.758,0,0,0-2.751,3.016v7.8a.451.451,0,0,1-.405.426H79.45a.45.45,0,0,1-.417-.41V7.934a.45.45,0,0,1,.4-.426l.018,0h2.076a.45.45,0,0,1,.422.41V8.7A4.848,4.848,0,0,1,85.6,7.123a4.308,4.308,0,0,1,3.886,2.2A4.877,4.877,0,0,1,93.726,7.121Zm32.3,1.591A5.955,5.955,0,0,1,127.23,12.5l0,.058v8.15a.45.45,0,0,1-.4.426l-.018,0h-2.183a.451.451,0,0,1-.423-.41V13c0-2.017-.95-3.044-2.751-3.044a2.505,2.505,0,0,0-2.049.955,3.951,3.951,0,0,0-.7,2.342v7.461a.451.451,0,0,1-.405.426h-2.2a.45.45,0,0,1-.422-.41V7.925a.45.45,0,0,1,.405-.426h2.148a.45.45,0,0,1,.417.41v.918a4.687,4.687,0,0,1,3.719-1.7A4.556,4.556,0,0,1,126.022,8.713ZM.522,15.584h15.5a.527.527,0,0,1,.522.513v1.959a.527.527,0,0,1-.5.531H.522A.527.527,0,0,1,0,18.074V16.1a.527.527,0,0,1,.5-.513Zm69.369-5.6c-2.125,0-3.476,1.513-3.476,3.944s1.333,3.94,3.476,3.94c2.044,0,3.422-1.585,3.422-3.94S71.935,9.983,69.891,9.983ZM51.877,12.613l-.006.048h6.407a2.968,2.968,0,0,0-3.169-2.8h-.055a3.152,3.152,0,0,0-3.171,2.7Zm51.83,0-.006.048h6.408a2.968,2.968,0,0,0-3.169-2.8h-.055a3.152,3.152,0,0,0-3.171,2.7ZM17.966.775a.527.527,0,0,1,.3.279.54.54,0,0,1,0,.41l-.675,1.8a.513.513,0,0,1-.653.315A10.726,10.726,0,0,0,6.583,5.43a11.153,11.153,0,0,0-3.656,5.826.522.522,0,0,1-.5.392H2.305L.45,11.2a.518.518,0,0,1-.329-.243H.113a.522.522,0,0,1-.058-.41A14.134,14.134,0,0,1,4.759,3.111,13.648,13.648,0,0,1,17.966.775ZM11.1,8.555H26.6a.527.527,0,0,1,.522.495v1.959a.527.527,0,0,1-.5.531H11.1a.527.527,0,0,1-.518-.513V9.087a.527.527,0,0,1,.5-.531ZM21.861,2.634h.054A1.581,1.581,0,0,1,23.477,4.2v.027c0,.009,0,.018,0,.027a1.589,1.589,0,1,1-1.616-1.616Z" transform="translate(746.814 0.126)" fill="#4fb58b"/>
  </g>
</svg>
