<svg xmlns="http://www.w3.org/2000/svg" width="20" height="16.25" viewBox="0 0 20 16.25">
  <path id="Vector" d="M17.945,4.053A8.185,8.185,0,0,0,20,1.924h0a8.563,8.563,0,0,1-2.362.648A4.078,4.078,0,0,0,19.442.3a8.2,8.2,0,0,1-2.6.993A4.1,4.1,0,0,0,9.749,4.1a4.222,4.222,0,0,0,.1.935A11.608,11.608,0,0,1,1.393.747a4.1,4.1,0,0,0,1.26,5.48A4.053,4.053,0,0,1,.8,5.722v.045A4.119,4.119,0,0,0,4.085,9.8a4.077,4.077,0,0,1-1.075.135,3.619,3.619,0,0,1-.776-.07,4.141,4.141,0,0,0,3.831,2.857A8.242,8.242,0,0,1,.981,14.466,7.755,7.755,0,0,1,0,14.41a11.547,11.547,0,0,0,6.29,1.84,11.59,11.59,0,0,0,11.655-12.2Z" transform="translate(0 0)" fill="#3734a9"/>
</svg>
