<svg xmlns="http://www.w3.org/2000/svg" width="31.252" height="28.722" viewBox="0 0 31.252 28.722">
  <g id="Group" transform="translate(-4.371 -5.644)">
    <path id="Vector" d="M8.126,1.279l-6.569,2.1c-.03,1.734-.1,3.433-.175,5.139-.034.784-.064,1.577-.094,2.344l-.006.088A10.619,10.619,0,0,0,1.593,14.8a4.414,4.414,0,0,0,.8,1.259,12.039,12.039,0,0,0,1.166,1.131c1.4,1.212,3,2.367,4.558,3.475a57.241,57.241,0,0,0,4.558-3.475,11.685,11.685,0,0,0,1.166-1.131,4.347,4.347,0,0,0,.8-1.259,10.642,10.642,0,0,0,.311-3.855l-.006-.088c-.03-.761-.064-1.553-.094-2.344-.07-1.7-.147-3.4-.175-5.139l-6.569-2.1ZM.755,2.321,7.933.03a.611.611,0,0,1,.381,0L15.48,2.315a.627.627,0,0,1,.456.592c.023,1.839.1,3.691.181,5.555.034.767.064,1.541.094,2.35l.006.088a11.341,11.341,0,0,1-.4,4.359,5.717,5.717,0,0,1-1.025,1.617,12.383,12.383,0,0,1-1.3,1.259c-1.547,1.342-3.3,2.589-4.992,3.784L8.5,21.93a.616.616,0,0,1-.733.006l-.023-.017c-1.694-1.2-3.445-2.444-4.992-3.784a13.21,13.21,0,0,1-1.3-1.259A5.716,5.716,0,0,1,.427,15.259,11.461,11.461,0,0,1,.035,10.9l.006-.088c.03-.8.064-1.577.094-2.35C.216,6.6.293,4.752.316,2.907a.622.622,0,0,1,.433-.586Z" transform="translate(11.871 8.804)"/>
    <path id="Vector-2" data-name="Vector" d="M11.06.022l9.872,3.152a.619.619,0,0,1,.433.592c0,3.4.128,6.006.228,8.091.433,8.894.439,9.024-10.37,16.752a.634.634,0,0,1-.733-.006C-.3,20.88-.3,20.757.13,11.863.23,9.77.358,7.169.358,3.772a.623.623,0,0,1,.492-.609L10.675.028a.66.66,0,0,1,.381,0Zm9.064,4.2L10.872,1.264,1.621,4.217c-.011,3.147-.134,5.659-.234,7.7-.392,8.133-.4,8.344,9.486,15.416,9.891-7.078,9.878-7.289,9.486-15.416-.1-2.039-.222-4.553-.234-7.7Z" transform="translate(9.131 5.644)"/>
    <path id="Vector-3" data-name="Vector" d="M10.192.184a.625.625,0,1,1,.884.884L4.567,7.578a.623.623,0,0,1-.884,0l-3.5-3.5a.625.625,0,0,1,.884-.884L4.126,6.253,10.2.182Z" transform="translate(14.369 16.478)"/>
    <path id="Vector-4" data-name="Vector" d="M5.437,9.427a.627.627,0,0,1,0,1.253H.627A.627.627,0,0,1,0,10.053V.627A.627.627,0,0,1,.627,0H5.583a.627.627,0,0,1,0,1.253H1.253V9.427ZM25.669,1.253a.627.627,0,1,1,0-1.253h4.956a.627.627,0,0,1,.627.627v9.426a.627.627,0,0,1-.627.627H25.814a.627.627,0,1,1,0-1.253H30V1.253H25.669Z" transform="translate(4.371 12.498)"/>
  </g>
</svg>
